# Blender v2.92.0 OBJ File: ''
# www.blender.org
mtllib scene.mtl
o Plane_Plane.002
v 3.912623 0.000000 3.912623
v 3.912623 0.000000 -3.912623
v -3.912623 7.132304 3.912623
v -3.912623 7.132304 -3.912623
v -2.662266 0.000000 3.912623
v -3.233129 0.236459 3.912623
v -3.676164 0.679494 3.912623
v -3.912623 1.250357 3.912623
v -3.912623 1.250357 -3.912623
v -3.676164 0.679494 -3.912623
v -3.233129 0.236459 -3.912623
v -2.662266 0.000000 -3.912623
vt 0.000000 0.000000
vt 0.000000 1.000000
vt 0.000000 1.000000
vt 0.000000 0.000000
vt 0.159785 0.000000
vt 1.000000 0.000000
vt 1.000000 1.000000
vt 0.159785 1.000000
vt 0.030217 0.000000
vt 0.030217 1.000000
vt 0.086834 1.000000
vt 0.086834 0.000000
vn 0.9808 0.1951 0.0000
vn 1.0000 0.0000 0.0000
vn 0.1951 0.9808 0.0000
vn 0.0000 1.0000 0.0000
vn 0.8314 0.5556 0.0000
vn 0.5556 0.8314 0.0000
usemtl None
s 1
f 8/1/1 9/2/1 4/3/2 3/4/2
f 5/5/3 1/6/4 2/7/4 12/8/3
f 9/2/1 8/1/1 7/9/5 10/10/5
f 5/5/3 12/8/3 11/11/6 6/12/6
f 10/10/5 7/9/5 6/12/6 11/11/6
